<mxfile host="Electron" agent="Mozilla/5.0 (Windows NT 10.0; Win64; x64) AppleWebKit/537.36 (KHTML, like Gecko) draw.io/28.1.2 Chrome/138.0.7204.243 Electron/37.4.0 Safari/537.36" version="28.1.2">
  <diagram id="SghAg3T6DQzW1iIF5ePK" name="Seite-1">
    <mxGraphModel dx="1426" dy="841" grid="1" gridSize="10" guides="1" tooltips="1" connect="1" arrows="1" fold="1" page="1" pageScale="1" pageWidth="827" pageHeight="1169" math="0" shadow="0">
      <root>
        <mxCell id="0" />
        <mxCell id="1" parent="0" />
        <mxCell id="0ngOP2N9nPMElhu7GGoK-1" value="start" style="ellipse;whiteSpace=wrap;html=1;" vertex="1" parent="1">
          <mxGeometry x="160" y="40" width="80" height="90" as="geometry" />
        </mxCell>
        <mxCell id="0ngOP2N9nPMElhu7GGoK-2" value="input" style="shape=parallelogram;perimeter=parallelogramPerimeter;whiteSpace=wrap;html=1;fixedSize=1;" vertex="1" parent="1">
          <mxGeometry x="140" y="240" width="120" height="60" as="geometry" />
        </mxCell>
        <mxCell id="0ngOP2N9nPMElhu7GGoK-3" value="print : Wie alt bist du" style="rounded=1;whiteSpace=wrap;html=1;" vertex="1" parent="1">
          <mxGeometry x="140" y="150" width="120" height="60" as="geometry" />
        </mxCell>
        <mxCell id="0ngOP2N9nPMElhu7GGoK-4" value="over 50" style="rhombus;whiteSpace=wrap;html=1;" vertex="1" parent="1">
          <mxGeometry x="160" y="330" width="80" height="80" as="geometry" />
        </mxCell>
        <mxCell id="0ngOP2N9nPMElhu7GGoK-5" value="" style="endArrow=classic;html=1;rounded=0;" edge="1" parent="1">
          <mxGeometry relative="1" as="geometry">
            <mxPoint x="199.5" y="390" as="sourcePoint" />
            <mxPoint x="199.5" y="440" as="targetPoint" />
          </mxGeometry>
        </mxCell>
        <mxCell id="0ngOP2N9nPMElhu7GGoK-6" value="Yes&lt;div&gt;&lt;br&gt;&lt;/div&gt;" style="edgeLabel;html=1;align=center;verticalAlign=middle;resizable=0;points=[];" vertex="1" connectable="0" parent="0ngOP2N9nPMElhu7GGoK-5">
          <mxGeometry x="-0.04" y="-3" relative="1" as="geometry">
            <mxPoint as="offset" />
          </mxGeometry>
        </mxCell>
        <mxCell id="0ngOP2N9nPMElhu7GGoK-7" value="Du bist alt geworden" style="rounded=1;whiteSpace=wrap;html=1;" vertex="1" parent="1">
          <mxGeometry x="140" y="440" width="120" height="60" as="geometry" />
        </mxCell>
        <mxCell id="0ngOP2N9nPMElhu7GGoK-8" value="" style="endArrow=classic;html=1;rounded=0;" edge="1" parent="1">
          <mxGeometry relative="1" as="geometry">
            <mxPoint x="230" y="370" as="sourcePoint" />
            <mxPoint x="330" y="370" as="targetPoint" />
          </mxGeometry>
        </mxCell>
        <mxCell id="0ngOP2N9nPMElhu7GGoK-9" value="No" style="edgeLabel;html=1;align=center;verticalAlign=middle;resizable=0;points=[];" vertex="1" connectable="0" parent="0ngOP2N9nPMElhu7GGoK-8">
          <mxGeometry y="1" relative="1" as="geometry">
            <mxPoint as="offset" />
          </mxGeometry>
        </mxCell>
        <mxCell id="0ngOP2N9nPMElhu7GGoK-10" value="Eines Tages wirst du auch alt" style="rounded=1;whiteSpace=wrap;html=1;" vertex="1" parent="1">
          <mxGeometry x="330" y="340" width="120" height="60" as="geometry" />
        </mxCell>
        <mxCell id="0ngOP2N9nPMElhu7GGoK-11" value="" style="endArrow=classic;html=1;rounded=0;" edge="1" parent="1">
          <mxGeometry width="50" height="50" relative="1" as="geometry">
            <mxPoint x="450" y="369.5" as="sourcePoint" />
            <mxPoint x="510" y="369.5" as="targetPoint" />
          </mxGeometry>
        </mxCell>
        <mxCell id="0ngOP2N9nPMElhu7GGoK-12" value="" style="endArrow=classic;html=1;rounded=0;" edge="1" parent="1">
          <mxGeometry width="50" height="50" relative="1" as="geometry">
            <mxPoint x="510" y="380" as="sourcePoint" />
            <mxPoint x="510" y="560" as="targetPoint" />
          </mxGeometry>
        </mxCell>
        <mxCell id="0ngOP2N9nPMElhu7GGoK-13" value="" style="endArrow=classic;html=1;rounded=0;" edge="1" parent="1">
          <mxGeometry width="50" height="50" relative="1" as="geometry">
            <mxPoint x="490" y="559.5" as="sourcePoint" />
            <mxPoint x="270" y="560" as="targetPoint" />
          </mxGeometry>
        </mxCell>
        <mxCell id="0ngOP2N9nPMElhu7GGoK-14" value="" style="endArrow=classic;html=1;rounded=0;" edge="1" parent="1" source="0ngOP2N9nPMElhu7GGoK-19">
          <mxGeometry width="50" height="50" relative="1" as="geometry">
            <mxPoint x="189.5" y="510" as="sourcePoint" />
            <mxPoint x="189.5" y="530" as="targetPoint" />
          </mxGeometry>
        </mxCell>
        <mxCell id="0ngOP2N9nPMElhu7GGoK-15" value="" style="endArrow=classic;html=1;rounded=0;" edge="1" parent="1">
          <mxGeometry width="50" height="50" relative="1" as="geometry">
            <mxPoint x="199.5" y="120" as="sourcePoint" />
            <mxPoint x="199.5" y="150" as="targetPoint" />
          </mxGeometry>
        </mxCell>
        <mxCell id="0ngOP2N9nPMElhu7GGoK-16" value="" style="endArrow=classic;html=1;rounded=0;" edge="1" parent="1">
          <mxGeometry width="50" height="50" relative="1" as="geometry">
            <mxPoint x="199.5" y="200" as="sourcePoint" />
            <mxPoint x="199.5" y="240" as="targetPoint" />
          </mxGeometry>
        </mxCell>
        <mxCell id="0ngOP2N9nPMElhu7GGoK-17" value="" style="endArrow=classic;html=1;rounded=0;" edge="1" parent="1">
          <mxGeometry width="50" height="50" relative="1" as="geometry">
            <mxPoint x="199.5" y="290" as="sourcePoint" />
            <mxPoint x="199.5" y="330" as="targetPoint" />
          </mxGeometry>
        </mxCell>
        <mxCell id="0ngOP2N9nPMElhu7GGoK-18" value="" style="endArrow=classic;html=1;rounded=0;exitX=0.5;exitY=1;exitDx=0;exitDy=0;" edge="1" parent="1" source="0ngOP2N9nPMElhu7GGoK-7" target="0ngOP2N9nPMElhu7GGoK-19">
          <mxGeometry width="50" height="50" relative="1" as="geometry">
            <mxPoint x="189.5" y="510" as="sourcePoint" />
            <mxPoint x="189.5" y="530" as="targetPoint" />
          </mxGeometry>
        </mxCell>
        <mxCell id="0ngOP2N9nPMElhu7GGoK-19" value="ende" style="ellipse;whiteSpace=wrap;html=1;" vertex="1" parent="1">
          <mxGeometry x="160" y="530" width="80" height="80" as="geometry" />
        </mxCell>
        <mxCell id="0ngOP2N9nPMElhu7GGoK-20" value="&lt;b&gt;PS Code&lt;/b&gt;&lt;div&gt;&lt;br&gt;&lt;/div&gt;&lt;div&gt;def ageMachine(age) : void&lt;/div&gt;&lt;div&gt;&lt;span style=&quot;white-space: pre;&quot;&gt;&#x9;&lt;/span&gt;&lt;br&gt;&lt;/div&gt;" style="text;html=1;align=left;verticalAlign=middle;whiteSpace=wrap;rounded=0;" vertex="1" parent="1">
          <mxGeometry x="600" y="680" width="160" height="120" as="geometry" />
        </mxCell>
        <mxCell id="0ngOP2N9nPMElhu7GGoK-21" value="&lt;b&gt;camelCase&lt;/b&gt;&lt;div&gt;&lt;b&gt;&lt;br&gt;&lt;/b&gt;&lt;/div&gt;&lt;div&gt;für funktion und variablen müssen wir camel case verwenden&lt;/div&gt;&lt;div&gt;&lt;br&gt;&lt;/div&gt;&lt;div&gt;getFood()&lt;/div&gt;&lt;div&gt;ageMachine()&lt;/div&gt;" style="text;html=1;align=left;verticalAlign=middle;whiteSpace=wrap;rounded=0;" vertex="1" parent="1">
          <mxGeometry x="40" y="720" width="120" height="80" as="geometry" />
        </mxCell>
        <mxCell id="0ngOP2N9nPMElhu7GGoK-22" value="&lt;b&gt;functions()&lt;/b&gt;&lt;div&gt;&lt;b&gt;&lt;br&gt;&lt;/b&gt;&lt;/div&gt;&lt;div&gt;function definition&lt;/div&gt;&lt;div&gt;so einfach ist es&lt;/div&gt;&lt;div&gt;def function_name()&lt;/div&gt;" style="text;html=1;align=left;verticalAlign=middle;whiteSpace=wrap;rounded=0;" vertex="1" parent="1">
          <mxGeometry x="40" y="840" width="120" height="80" as="geometry" />
        </mxCell>
        <mxCell id="0ngOP2N9nPMElhu7GGoK-24" value="start" style="ellipse;whiteSpace=wrap;html=1;" vertex="1" parent="1">
          <mxGeometry x="320" y="640" width="80" height="90" as="geometry" />
        </mxCell>
        <mxCell id="0ngOP2N9nPMElhu7GGoK-27" value="ende" style="ellipse;whiteSpace=wrap;html=1;" vertex="1" parent="1">
          <mxGeometry x="320" y="1040" width="80" height="80" as="geometry" />
        </mxCell>
        <mxCell id="0ngOP2N9nPMElhu7GGoK-32" value="print : Wie alt bist du" style="rounded=1;whiteSpace=wrap;html=1;" vertex="1" parent="1">
          <mxGeometry x="300" y="760" width="120" height="60" as="geometry" />
        </mxCell>
        <mxCell id="0ngOP2N9nPMElhu7GGoK-34" value="input: age" style="shape=parallelogram;perimeter=parallelogramPerimeter;whiteSpace=wrap;html=1;fixedSize=1;" vertex="1" parent="1">
          <mxGeometry x="310" y="850" width="120" height="60" as="geometry" />
        </mxCell>
        <mxCell id="0ngOP2N9nPMElhu7GGoK-42" value="&lt;b&gt;ageMachine&lt;/b&gt;" style="shape=process;whiteSpace=wrap;html=1;backgroundOutline=1;" vertex="1" parent="1">
          <mxGeometry x="300" y="950" width="120" height="60" as="geometry" />
        </mxCell>
        <mxCell id="0ngOP2N9nPMElhu7GGoK-52" value="start" style="ellipse;whiteSpace=wrap;html=1;" vertex="1" parent="1">
          <mxGeometry x="160" y="1280" width="80" height="90" as="geometry" />
        </mxCell>
        <mxCell id="0ngOP2N9nPMElhu7GGoK-53" value="input" style="shape=parallelogram;perimeter=parallelogramPerimeter;whiteSpace=wrap;html=1;fixedSize=1;" vertex="1" parent="1">
          <mxGeometry x="140" y="1480" width="120" height="60" as="geometry" />
        </mxCell>
        <mxCell id="0ngOP2N9nPMElhu7GGoK-54" value="print : Wie alt bist du" style="rounded=1;whiteSpace=wrap;html=1;" vertex="1" parent="1">
          <mxGeometry x="140" y="1390" width="120" height="60" as="geometry" />
        </mxCell>
        <mxCell id="0ngOP2N9nPMElhu7GGoK-55" value="over 50" style="rhombus;whiteSpace=wrap;html=1;" vertex="1" parent="1">
          <mxGeometry x="160" y="1570" width="80" height="80" as="geometry" />
        </mxCell>
        <mxCell id="0ngOP2N9nPMElhu7GGoK-56" value="" style="endArrow=classic;html=1;rounded=0;" edge="1" parent="1">
          <mxGeometry relative="1" as="geometry">
            <mxPoint x="199.5" y="1630" as="sourcePoint" />
            <mxPoint x="199.5" y="1680" as="targetPoint" />
          </mxGeometry>
        </mxCell>
        <mxCell id="0ngOP2N9nPMElhu7GGoK-57" value="Yes&lt;div&gt;&lt;br&gt;&lt;/div&gt;" style="edgeLabel;html=1;align=center;verticalAlign=middle;resizable=0;points=[];" vertex="1" connectable="0" parent="0ngOP2N9nPMElhu7GGoK-56">
          <mxGeometry x="-0.04" y="-3" relative="1" as="geometry">
            <mxPoint as="offset" />
          </mxGeometry>
        </mxCell>
        <mxCell id="0ngOP2N9nPMElhu7GGoK-58" value="Du bist alt geworden" style="rounded=1;whiteSpace=wrap;html=1;" vertex="1" parent="1">
          <mxGeometry x="140" y="1680" width="120" height="60" as="geometry" />
        </mxCell>
        <mxCell id="0ngOP2N9nPMElhu7GGoK-59" value="" style="endArrow=classic;html=1;rounded=0;" edge="1" parent="1">
          <mxGeometry relative="1" as="geometry">
            <mxPoint x="230" y="1610" as="sourcePoint" />
            <mxPoint x="330" y="1610" as="targetPoint" />
          </mxGeometry>
        </mxCell>
        <mxCell id="0ngOP2N9nPMElhu7GGoK-60" value="No" style="edgeLabel;html=1;align=center;verticalAlign=middle;resizable=0;points=[];" vertex="1" connectable="0" parent="0ngOP2N9nPMElhu7GGoK-59">
          <mxGeometry y="1" relative="1" as="geometry">
            <mxPoint as="offset" />
          </mxGeometry>
        </mxCell>
        <mxCell id="0ngOP2N9nPMElhu7GGoK-61" value="Eines Tages wirst du auch alt" style="rounded=1;whiteSpace=wrap;html=1;" vertex="1" parent="1">
          <mxGeometry x="330" y="1580" width="120" height="60" as="geometry" />
        </mxCell>
        <mxCell id="0ngOP2N9nPMElhu7GGoK-62" value="" style="endArrow=classic;html=1;rounded=0;" edge="1" parent="1">
          <mxGeometry width="50" height="50" relative="1" as="geometry">
            <mxPoint x="450" y="1609.5" as="sourcePoint" />
            <mxPoint x="510" y="1609.5" as="targetPoint" />
          </mxGeometry>
        </mxCell>
        <mxCell id="0ngOP2N9nPMElhu7GGoK-63" value="" style="endArrow=classic;html=1;rounded=0;" edge="1" parent="1">
          <mxGeometry width="50" height="50" relative="1" as="geometry">
            <mxPoint x="510" y="1620" as="sourcePoint" />
            <mxPoint x="510" y="1800" as="targetPoint" />
          </mxGeometry>
        </mxCell>
        <mxCell id="0ngOP2N9nPMElhu7GGoK-64" value="" style="endArrow=classic;html=1;rounded=0;" edge="1" parent="1">
          <mxGeometry width="50" height="50" relative="1" as="geometry">
            <mxPoint x="490" y="1799.5" as="sourcePoint" />
            <mxPoint x="270" y="1800" as="targetPoint" />
          </mxGeometry>
        </mxCell>
        <mxCell id="0ngOP2N9nPMElhu7GGoK-65" value="" style="endArrow=classic;html=1;rounded=0;" edge="1" source="0ngOP2N9nPMElhu7GGoK-70" parent="1">
          <mxGeometry width="50" height="50" relative="1" as="geometry">
            <mxPoint x="189.5" y="1750" as="sourcePoint" />
            <mxPoint x="189.5" y="1770" as="targetPoint" />
          </mxGeometry>
        </mxCell>
        <mxCell id="0ngOP2N9nPMElhu7GGoK-66" value="" style="endArrow=classic;html=1;rounded=0;" edge="1" parent="1">
          <mxGeometry width="50" height="50" relative="1" as="geometry">
            <mxPoint x="199.5" y="1360" as="sourcePoint" />
            <mxPoint x="199.5" y="1390" as="targetPoint" />
          </mxGeometry>
        </mxCell>
        <mxCell id="0ngOP2N9nPMElhu7GGoK-67" value="" style="endArrow=classic;html=1;rounded=0;" edge="1" parent="1">
          <mxGeometry width="50" height="50" relative="1" as="geometry">
            <mxPoint x="199.5" y="1440" as="sourcePoint" />
            <mxPoint x="199.5" y="1480" as="targetPoint" />
          </mxGeometry>
        </mxCell>
        <mxCell id="0ngOP2N9nPMElhu7GGoK-68" value="" style="endArrow=classic;html=1;rounded=0;" edge="1" parent="1">
          <mxGeometry width="50" height="50" relative="1" as="geometry">
            <mxPoint x="199.5" y="1530" as="sourcePoint" />
            <mxPoint x="199.5" y="1570" as="targetPoint" />
          </mxGeometry>
        </mxCell>
        <mxCell id="0ngOP2N9nPMElhu7GGoK-69" value="" style="endArrow=classic;html=1;rounded=0;exitX=0.5;exitY=1;exitDx=0;exitDy=0;" edge="1" source="0ngOP2N9nPMElhu7GGoK-58" target="0ngOP2N9nPMElhu7GGoK-70" parent="1">
          <mxGeometry width="50" height="50" relative="1" as="geometry">
            <mxPoint x="189.5" y="1750" as="sourcePoint" />
            <mxPoint x="189.5" y="1770" as="targetPoint" />
          </mxGeometry>
        </mxCell>
        <mxCell id="0ngOP2N9nPMElhu7GGoK-70" value="ende" style="ellipse;whiteSpace=wrap;html=1;" vertex="1" parent="1">
          <mxGeometry x="160" y="1770" width="80" height="80" as="geometry" />
        </mxCell>
        <mxCell id="0ngOP2N9nPMElhu7GGoK-71" value="&lt;b&gt;Runtine ageMachine&lt;/b&gt;" style="text;html=1;align=center;verticalAlign=middle;whiteSpace=wrap;rounded=0;" vertex="1" parent="1">
          <mxGeometry x="80" y="1180" width="270" height="70" as="geometry" />
        </mxCell>
        <mxCell id="0ngOP2N9nPMElhu7GGoK-72" value="START&lt;div&gt;&lt;span style=&quot;white-space: pre;&quot;&gt;&#x9;&lt;/span&gt;DEF ageMachine(age&lt;br&gt;&lt;/div&gt;&lt;div&gt;&lt;span style=&quot;white-space: pre;&quot;&gt;&#x9;&lt;/span&gt;&lt;span style=&quot;white-space: pre;&quot;&gt;&#x9;&lt;/span&gt;WENN age &amp;gt; 50&lt;br&gt;&lt;/div&gt;&lt;div&gt;&lt;span style=&quot;white-space: pre;&quot;&gt;&#x9;&lt;/span&gt;&lt;span style=&quot;white-space: pre;&quot;&gt;&#x9;&lt;/span&gt;&lt;span style=&quot;white-space: pre;&quot;&gt;&#x9;&lt;/span&gt;OUTPUT : Du bist alt geworden&lt;br&gt;&lt;/div&gt;&lt;div&gt;&lt;span style=&quot;white-space: pre;&quot;&gt;&#x9;&lt;/span&gt;&lt;span style=&quot;white-space: pre;&quot;&gt;&#x9;&lt;/span&gt;&lt;span style=&quot;white-space: pre;&quot;&gt;&#x9;&lt;/span&gt;END&lt;br&gt;&lt;/div&gt;&lt;div&gt;&lt;span style=&quot;white-space: pre;&quot;&gt;&#x9;&lt;/span&gt;&lt;span style=&quot;white-space: pre;&quot;&gt;&#x9;&lt;/span&gt;OUTPUT : Eines Tages wirst du auch alt&lt;br&gt;&lt;/div&gt;&lt;div&gt;&lt;br&gt;&lt;/div&gt;&lt;div&gt;END&lt;/div&gt;" style="text;html=1;align=left;verticalAlign=middle;whiteSpace=wrap;rounded=0;" vertex="1" parent="1">
          <mxGeometry x="480" y="1195" width="280" height="260" as="geometry" />
        </mxCell>
      </root>
    </mxGraphModel>
  </diagram>
</mxfile>
